# xmcd
#
# Track frame offsets:
#	150
#	20911
#	38736
#	54523
#	73052
#	90087
#	107138
#	122883
#	140767
#	160252
#	179204
#	196797
#	210201
#	223248
#	241376
#	258251
#	270140
#	288733
#	306323
#	319120
#
# Disc length: 4508 seconds
#
# Revision: 2
# Processed by: cddbd v1.5.1PL0 Copyright (c) Steve Scherf et al.
# Submitted via: audiograbber 1.83.01
#
DISCID=2e119a14
DTITLE=Zámbó Jimmy - 2001 Gold Collection
DYEAR=1900
DGENRE=
TTITLE0=Mit akarsz a boldogságtól
TTITLE1=Sírni volna jó
TTITLE2=Csak egy vallomás
TTITLE3=Vádol az élet
TTITLE4=Más lettem én
TTITLE5=Ugye nem bántad meg
TTITLE6=Még nem veszíthetek
TTITLE7=Mindent megbocsájt
TTITLE8=Harag vagy béke
TTITLE9=Csak élni akal'tam õszintén
TTITLE10=Szeress úgy, ahogy itt vagyok veled
TTITLE11=Nézz le rám, ó istenem
TTITLE12=Bye-Bye lány
TTITLE13=Szeretlek nagyon
TTITLE14=Ne szeress úgy
TTITLE15=Mondd mi...
TTITLE16=Dalolj gitár
TTITLE17=Már nem fáj
TTITLE18=A világ lassan útra kész
TTITLE19=Egyszer megjavulk én
EXTD=
EXTT0=
EXTT1=
EXTT2=
EXTT3=
EXTT4=
EXTT5=
EXTT6=
EXTT7=
EXTT8=
EXTT9=
EXTT10=
EXTT11=
EXTT12=
EXTT13=
EXTT14=
EXTT15=
EXTT16=
EXTT17=
EXTT18=
EXTT19=
PLAYORDER=
